# Blender 4.0.2
# www.blender.org
mtllib American modified.mtl
o American
v 40.500000 5.000000 -4.500000
v 24.354893 5.000000 -16.640213
v 24.354893 5.000000 -14.397256
v 4.500000 5.000000 -4.500000
v 24.125727 5.000000 -17.545166
v 24.251869 5.000000 -17.257587
v 27.453520 5.000000 -24.940214
v 23.953970 5.000000 -17.808060
v 14.753520 5.000000 -24.940214
v 4.500000 5.000000 -40.500000
v 14.753520 5.000000 -32.140213
v 23.741283 5.000000 -18.039099
v 17.453520 5.000000 -24.940214
v 17.453520 5.000000 -32.140213
v 27.453520 5.000000 -32.140213
v 20.655170 5.000000 -17.257587
v 20.781313 5.000000 -17.545166
v 24.328959 5.000000 -16.953169
v 30.153521 5.000000 -24.940214
v 30.153521 5.000000 -32.140213
v 40.500000 5.000000 -40.500000
v 20.552149 5.000000 -14.397256
v 20.552149 5.000000 -16.640213
v 20.578079 5.000000 -16.953169
v 22.610535 5.000000 -18.535091
v 22.920279 5.000000 -18.483404
v 20.953070 5.000000 -17.808060
v 21.165756 5.000000 -18.039099
v 21.413568 5.000000 -18.231977
v 21.689747 5.000000 -18.381439
v 21.986761 5.000000 -18.483404
v 22.296507 5.000000 -18.535091
v 23.217293 5.000000 -18.381439
v 23.493471 5.000000 -18.231977
v 30.153521 0.000000 -32.140213
v 27.453520 0.000000 -32.140213
v 30.153521 0.000000 -24.940214
v 27.453520 0.000000 -24.940214
v 17.453520 0.000000 -24.940214
v 17.453520 0.000000 -32.140213
v 14.753520 0.000000 -24.940214
v 14.753520 0.000000 -32.140213
v 45.000000 5.000000 -45.000000
v 45.000000 5.000000 0.000000
v 45.000000 0.000000 -45.000000
v 45.000000 0.000000 0.000000
v 0.000000 5.000000 -45.000000
v 0.000000 0.000000 -45.000000
v 0.000000 5.000000 0.000000
v 0.000000 0.000000 0.000000
v 20.552149 0.000000 -16.640213
v 20.578079 0.000000 -16.953169
v 20.655170 0.000000 -17.257587
v 20.781313 0.000000 -17.545166
v 20.953070 0.000000 -17.808060
v 21.165756 0.000000 -18.039099
v 21.413568 0.000000 -18.231977
v 21.689747 0.000000 -18.381439
v 21.986761 0.000000 -18.483404
v 22.296507 0.000000 -18.535091
v 22.610535 0.000000 -18.535091
v 22.920279 0.000000 -18.483404
v 23.217293 0.000000 -18.381439
v 23.493471 0.000000 -18.231977
v 23.741283 0.000000 -18.039099
v 23.953970 0.000000 -17.808060
v 24.125727 0.000000 -17.545166
v 24.251869 0.000000 -17.257587
v 24.328959 0.000000 -16.953169
v 24.354893 0.000000 -16.640213
v 24.354893 0.000000 -14.397256
v 20.552149 0.000000 -14.397256
v 42.500000 5.000000 -42.500000
v 2.500000 5.000000 -42.500000
v 2.500000 5.000000 -2.500000
v 42.500000 5.000000 -2.500000
v 42.500000 4.000000 -42.500000
v 42.500000 4.000000 -2.500000
v 2.500000 4.000000 -2.500000
v 2.500000 4.000000 -42.500000
v 4.500000 4.000000 -40.500000
v 4.500000 4.000000 -4.500000
v 40.500000 4.000000 -4.500000
v 40.500000 4.000000 -40.500000
vn 0.5774 0.5774 0.5774
vn -0.6970 0.7165 0.0288
vn -0.3015 0.9045 -0.3015
vn -0.5774 0.5773 0.5774
vn -0.6046 0.7262 0.3272
vn -0.6503 0.7262 0.2232
vn 0.3015 0.9045 -0.3015
vn -0.5425 0.7262 0.4223
vn -0.5774 0.5773 -0.5774
vn 0.3015 0.9045 0.3015
vn -0.4656 0.7262 0.5058
vn -0.3015 0.9045 0.3015
vn 0.6503 0.7262 0.2232
vn 0.6046 0.7262 0.3272
vn -0.6781 0.7262 0.1132
vn 0.5774 0.5773 -0.5774
vn 0.6970 0.7165 0.0288
vn 0.6781 0.7262 0.1132
vn -0.0568 0.7262 0.6852
vn -0.1688 0.7262 0.6665
vn 0.5425 0.7262 0.4223
vn 0.4656 0.7262 0.5058
vn 0.3760 0.7262 0.5756
vn 0.2762 0.7262 0.6296
vn 0.1688 0.7262 0.6665
vn 0.0568 0.7262 0.6852
vn -0.2762 0.7262 0.6296
vn -0.3760 0.7262 0.5756
vn -0.3015 -0.9045 0.3015
vn 0.3015 -0.9045 0.3015
vn -0.3015 -0.9045 -0.3015
vn 0.3015 -0.9045 -0.3015
vn 0.6970 -0.7165 0.0288
vn 0.6781 -0.7262 0.1132
vn 0.6503 -0.7262 0.2232
vn 0.6046 -0.7262 0.3272
vn 0.5425 -0.7262 0.4223
vn 0.4656 -0.7262 0.5058
vn 0.3760 -0.7262 0.5756
vn 0.2762 -0.7262 0.6296
vn 0.1688 -0.7262 0.6665
vn 0.0568 -0.7262 0.6852
vn -0.0568 -0.7262 0.6852
vn -0.1688 -0.7262 0.6665
vn -0.2762 -0.7262 0.6296
vn -0.3760 -0.7262 0.5756
vn -0.4656 -0.7262 0.5058
vn -0.5425 -0.7262 0.4223
vn -0.6046 -0.7262 0.3272
vn -0.6503 -0.7262 0.2232
vn -0.6781 -0.7262 0.1132
vn -0.6970 -0.7165 0.0288
vn -0.0000 1.0000 -0.0000
vn -0.0000 -1.0000 -0.0000
vn -0.5774 0.5774 0.5773
vn -0.5774 0.5774 -0.5774
vn 0.5774 0.5774 -0.5774
vn 0.5773 0.5774 0.5774
s 1
f 1//1 2//2 3//3
f 1//1 3//3 4//4
f 5//5 6//6 7//7
f 5//5 7//7 8//8
f 4//4 9//7 10//9
f 10//9 9//7 11//10
f 12//11 8//8 13//3
f 13//3 8//8 7//7
f 13//3 7//7 14//12
f 14//12 7//7 15//10
f 16//13 17//14 9//7
f 6//6 18//15 7//7
f 7//7 18//15 2//2
f 7//7 2//2 19//3
f 19//3 2//2 1//1
f 19//3 1//1 20//12
f 20//12 1//1 21//16
f 20//12 21//16 15//10
f 15//10 21//16 10//9
f 15//10 10//9 14//12
f 14//12 10//9 11//10
f 3//3 22//7 4//4
f 4//4 22//7 23//17
f 4//4 23//17 9//7
f 9//7 23//17 24//18
f 9//7 24//18 16//13
f 13//3 25//19 26//20
f 17//14 27//21 9//7
f 9//7 27//21 28//22
f 9//7 28//22 13//3
f 13//3 28//22 29//23
f 13//3 29//23 30//24
f 30//24 31//25 13//3
f 13//3 31//25 32//26
f 13//3 32//26 25//19
f 26//20 33//27 13//3
f 13//3 33//27 34//28
f 13//3 34//28 12//11
f 20//12 15//10 35//29
f 35//29 15//10 36//30
f 19//3 20//12 37//31
f 37//31 20//12 35//29
f 7//7 19//3 38//32
f 38//32 19//3 37//31
f 13//3 14//12 39//31
f 39//31 14//12 40//29
f 9//7 13//3 41//32
f 41//32 13//3 39//31
f 11//10 9//7 42//30
f 42//30 9//7 41//32
f 23//17 51//33 24//18
f 24//18 51//33 52//34
f 24//18 52//34 16//13
f 16//13 52//34 53//35
f 16//13 53//35 17//14
f 17//14 53//35 54//36
f 17//14 54//36 27//21
f 27//21 54//36 55//37
f 27//21 55//37 28//22
f 28//22 55//37 56//38
f 28//22 56//38 29//23
f 29//23 56//38 57//39
f 29//23 57//39 30//24
f 30//24 57//39 58//40
f 30//24 58//40 31//25
f 31//25 58//40 59//41
f 31//25 59//41 32//26
f 32//26 59//41 60//42
f 32//26 60//42 25//19
f 25//19 60//42 61//43
f 25//19 61//43 26//20
f 26//20 61//43 62//44
f 26//20 62//44 33//27
f 33//27 62//44 63//45
f 33//27 63//45 34//28
f 34//28 63//45 64//46
f 34//28 64//46 12//11
f 12//11 64//46 65//47
f 12//11 65//47 8//8
f 8//8 65//47 66//48
f 8//8 66//48 5//5
f 5//5 66//48 67//49
f 5//5 67//49 6//6
f 6//6 67//49 68//50
f 6//6 68//50 18//15
f 18//15 68//50 69//51
f 18//15 69//51 2//2
f 2//2 69//51 70//52
f 3//3 2//2 71//31
f 71//31 2//2 70//52
f 22//7 3//3 72//32
f 72//32 3//3 71//31
f 14//12 11//10 40//29
f 40//29 11//10 42//30
f 23//17 22//7 51//33
f 51//33 22//7 72//32
f 15//10 7//7 36//30
f 36//30 7//7 38//32
f 73//12 43//53 74//10
f 74//10 43//53 47//53
f 74//10 47//53 75//7
f 75//7 47//53 49//53
f 75//7 49//53 76//3
f 76//3 49//53 44//53
f 76//3 44//53 73//12
f 73//12 44//53 43//53
f 41//32 50//54 42//30
f 42//30 50//54 48//54
f 42//30 48//54 40//29
f 50//54 72//32 46//54
f 46//54 72//32 71//31
f 55//37 54//36 41//32
f 54//36 53//35 41//32
f 41//32 53//35 52//34
f 41//32 52//34 50//54
f 50//54 52//34 51//33
f 50//54 51//33 72//32
f 36//30 38//32 39//31
f 71//31 70//52 46//54
f 46//54 70//52 37//31
f 46//54 37//31 45//54
f 45//54 37//31 35//29
f 45//54 35//29 48//54
f 48//54 35//29 36//30
f 48//54 36//30 40//29
f 40//29 36//30 39//31
f 70//52 69//51 37//31
f 37//31 69//51 68//50
f 37//31 68//50 67//49
f 63//45 62//44 38//32
f 38//32 62//44 61//43
f 38//32 61//43 60//42
f 67//49 66//48 37//31
f 37//31 66//48 65//47
f 37//31 65//47 38//32
f 38//32 65//47 64//46
f 38//32 64//46 63//45
f 41//32 39//31 55//37
f 55//37 39//31 38//32
f 55//37 38//32 56//38
f 56//38 38//32 57//39
f 60//42 59//41 38//32
f 38//32 59//41 58//40
f 38//32 58//40 57//39
f 77//55 78//56 73//12
f 73//12 78//56 76//3
f 78//56 79//57 76//3
f 76//3 79//57 75//7
f 79//57 80//58 75//7
f 75//7 80//58 74//10
f 80//58 77//55 74//10
f 74//10 77//55 73//12
f 81//3 80//58 82//12
f 82//12 80//58 79//57
f 82//12 79//57 83//10
f 83//10 79//57 78//56
f 83//10 78//56 84//7
f 84//7 78//56 77//55
f 84//7 77//55 81//3
f 81//3 77//55 80//58
f 83//10 84//7 1//1
f 1//1 84//7 21//16
f 82//12 83//10 4//4
f 4//4 83//10 1//1
f 81//3 82//12 10//9
f 10//9 82//12 4//4
f 84//7 81//3 21//16
f 21//16 81//3 10//9
