# Blender 4.1.0
# www.blender.org
mtllib Bottom_enclousure.mtl
o Pieza1
v 17.000000 5.000000 -3.000000
v 17.000000 40.000000 -3.000000
v 17.000000 5.000000 -7.000000
v 17.000000 40.000000 -7.000000
v 3.000000 5.000000 -7.000000
v 3.000000 40.000000 -7.000000
v 3.000000 5.000000 -3.000000
v 3.000000 40.000000 -3.000000
v 20.000000 40.000000 -10.000000
v 0.000000 40.000000 -10.000000
v 0.000000 40.000000 0.000000
v 20.000000 40.000000 0.000000
v 20.000000 0.000000 -10.000000
v 20.000000 0.000000 0.000000
v 0.000000 0.000000 -10.000000
v 0.000000 0.000000 0.000000
vn -0.5774 0.5774 -0.5773
vn -0.3015 0.9045 -0.3015
vn -0.5774 0.5773 0.5774
vn -0.3015 0.9045 0.3015
vn 0.5774 0.5774 0.5773
vn 0.3015 0.9045 0.3015
vn 0.5774 0.5773 -0.5774
vn 0.3015 0.9045 -0.3015
vn 0.5774 0.5774 -0.5773
vn -0.5773 0.5774 -0.5774
vn -0.5774 0.5774 0.5773
vn 0.5773 0.5774 0.5774
vn 0.5773 -0.5774 -0.5774
vn 0.5774 -0.5773 0.5773
vn -0.5774 -0.5773 -0.5773
vn -0.5773 -0.5774 0.5774
s 1
f 1//1 2//2 3//3
f 3//3 2//2 4//4
f 3//3 4//4 5//5
f 5//5 4//4 6//6
f 5//5 6//6 7//7
f 7//7 6//6 8//8
f 7//7 8//8 1//1
f 1//1 8//8 2//2
f 4//4 9//9 6//6
f 6//6 9//9 10//10
f 6//6 10//10 8//8
f 8//8 10//10 11//11
f 8//8 11//11 2//2
f 2//2 11//11 12//12
f 2//2 12//12 4//4
f 4//4 12//12 9//9
f 13//13 14//14 15//15
f 15//15 14//14 16//16
f 11//11 10//10 16//16
f 16//16 10//10 15//15
f 12//12 11//11 14//14
f 14//14 11//11 16//16
f 9//9 12//12 13//13
f 13//13 12//12 14//14
f 10//10 9//9 15//15
f 15//15 9//9 13//13
f 5//5 7//7 3//3
f 3//3 7//7 1//1
